<svg xmlns="http://www.w3.org/2000/svg" viewBox="0 0 318 318" xmlns:xlink="http://www.w3.org/1999/xlink"><defs><path id="a" d="M0 0h318v318H0z"/><mask id="b" width="318" height="318" x="0" y="0" fill="#fff"><use xlink:href="#a"/></mask></defs><g fill="none" fill-rule="evenodd"><use stroke="#4A4A4A" stroke-width="8" mask="url(#b)" xlink:href="#a"/><path fill="#4A4A4A" d="M46.636 265.416c4.968 0 7.056 3.924 7.056 10.008 0 5.832-2.7 10.116-7.524 10.116-1.944 0-3.6-.684-4.788-2.088v8.892l-4.608.504v-26.892h4.032l.252 2.34c1.512-1.98 3.528-2.88 5.58-2.88zm-1.764 16.596c2.52 0 3.996-1.944 3.996-6.552 0-4.824-1.296-6.588-3.6-6.588-1.62 0-2.988 1.116-3.888 2.592v8.568c.9 1.332 2.052 1.98 3.492 1.98zm21.132-16.596c5.616 0 8.928 3.816 8.928 10.044 0 6.012-3.348 10.08-8.964 10.08-5.616 0-8.964-3.816-8.964-10.08 0-5.976 3.348-10.044 9-10.044zm0 3.492c-2.7 0-4.14 2.052-4.14 6.552 0 4.572 1.404 6.588 4.104 6.588s4.104-2.052 4.104-6.588-1.404-6.552-4.068-6.552zm17.748 16.632c1.188 0 2.268-.288 3.06-.648l-.972-3.24c-.324.108-.648.18-1.08.18-.756 0-1.08-.432-1.08-1.332v-22.68l-4.608.504v22.32c0 3.132 1.764 4.896 4.68 4.896zm8.388-29.232c-1.692 0-2.88 1.224-2.88 2.808 0 1.548 1.188 2.772 2.88 2.772 1.728 0 2.916-1.224 2.916-2.772 0-1.584-1.188-2.808-2.916-2.808zm2.34 9.648h-4.608V285h4.608v-19.044zm11.556-.54c-4.428 0-7.344 2.376-7.344 5.544 0 2.808 1.728 4.68 5.652 5.76 3.564 1.008 4.32 1.512 4.32 3.096 0 1.44-1.332 2.304-3.384 2.304-1.944 0-3.708-.756-5.184-1.872l-2.304 2.592c1.764 1.584 4.32 2.7 7.596 2.7 4.356 0 8.028-2.088 8.028-6.048 0-3.384-2.196-4.968-6.084-6.012-3.24-.9-3.996-1.476-3.996-2.736 0-1.152 1.044-1.908 2.88-1.908 1.692 0 3.204.54 4.788 1.548l1.8-2.7c-1.8-1.404-4.032-2.268-6.768-2.268zm21.276 0c-2.304 0-4.068 1.008-5.544 2.808v-10.332l-4.608.468V285h4.608v-13.284c1.116-1.728 2.376-2.844 3.996-2.844 1.404 0 2.34.684 2.34 3.06V285h4.608v-13.788c0-3.6-2.016-5.796-5.4-5.796zm26.388 9.612c0 .612-.072 1.368-.108 1.872H141.64c.324 3.888 2.16 5.148 4.68 5.148 1.692 0 3.096-.54 4.752-1.692l1.908 2.628c-1.872 1.512-4.176 2.556-7.056 2.556-5.904 0-9.072-3.924-9.072-9.936 0-5.796 3.06-10.188 8.46-10.188 5.328 0 8.388 3.6 8.388 9.612zm-4.572-1.116v-.216c0-3.132-1.116-5.004-3.708-5.004-2.16 0-3.528 1.44-3.78 5.22h7.488zm20.124-16.092l4.608.504V285h-4.068l-.324-2.412c-1.152 1.728-2.988 2.952-5.436 2.952-4.752 0-7.236-3.996-7.236-10.044 0-5.868 2.952-10.08 7.668-10.08 2.016 0 3.6.864 4.788 2.052v-9.648zm-3.924 24.228c1.692 0 2.844-.828 3.924-2.448v-8.712c-1.008-1.224-2.088-2.016-3.636-2.016-2.376 0-3.96 2.016-3.96 6.588 0 4.896 1.404 6.588 3.672 6.588zM60.6 71.4c2.933.32 5.613 1.067 8.04 2.24 2.427 1.173 4.52 2.56 6.28 4.16l-3.44 3.6c-3.147-2.987-6.773-4.8-10.88-5.44v19.52c9.973 3.2 14.96 8.773 14.96 16.72 0 3.787-1.293 7.12-3.88 10-2.587 2.88-6.28 4.64-11.08 5.28V139h-5.12v-11.28c-3.413-.213-6.493-1.027-9.24-2.44s-5.107-3.107-7.08-5.08l3.36-3.68c3.68 3.947 8 6.133 12.96 6.56V99.32c-9.493-3.147-14.24-8.133-14.24-14.96 0-1.973.52-3.907 1.56-5.8 1.04-1.893 2.64-3.493 4.8-4.8 2.16-1.307 4.787-2.093 7.88-2.36V59.32h5.12V71.4zm-11.16 7.52c-1.52 1.387-2.28 3.307-2.28 5.76 0 2.08.613 3.827 1.84 5.24 1.227 1.413 3.387 2.733 6.48 3.96V76.2c-2.507.427-4.52 1.333-6.04 2.72zm11.16 43.76c6.027-1.12 9.04-4.72 9.04-10.8 0-2.507-.693-4.627-2.08-6.36-1.387-1.733-3.707-3.24-6.96-4.52v21.68zm56.56-58.16c-3.413 0-6.133.533-8.16 1.6-2.027 1.067-2.907 2.8-2.64 5.2l1.76 17.76c.053.48.08 1.147.08 2 0 2.347-.493 4.147-1.48 5.4-.987 1.253-2.52 2.093-4.6 2.52 2.133.427 3.68 1.24 4.64 2.44.96 1.2 1.44 3 1.44 5.4 0 .907-.027 1.6-.08 2.08l-1.76 17.76c-.48 4.533 3.12 6.8 10.8 6.8v4.24c-4.267 0-7.92-.787-10.96-2.36-3.04-1.573-4.56-4.253-4.56-8.04 0-.587.027-1.04.08-1.36l1.84-16.32c.053-.427.08-1.013.08-1.76 0-1.547-.333-2.813-1-3.8-.667-.987-1.907-1.747-3.72-2.28-1.813-.533-4.427-.8-7.84-.8v-4c3.413 0 6.027-.253 7.84-.76 1.813-.507 3.053-1.24 3.72-2.2.667-.96 1-2.213 1-3.76 0-.747-.027-1.333-.08-1.76l-1.84-16.48c-.053-.32-.08-.773-.08-1.36 0-3.787 1.533-6.467 4.6-8.04 3.067-1.573 6.707-2.36 10.92-2.36v4.24zm145.04-1.88c3.04 1.573 4.56 4.253 4.56 8.04 0 .587-.027 1.04-.08 1.36l-1.84 16.48-.08 1.28c0 2.4.92 4.2 2.76 5.4 1.84 1.2 5.107 1.8 9.8 1.8v4c-4.693 0-7.96.613-9.8 1.84-1.84 1.227-2.76 3.067-2.76 5.52l.08 1.28 1.84 16.32c.053.32.08.773.08 1.36 0 3.787-1.533 6.467-4.6 8.04-3.067 1.573-6.707 2.36-10.92 2.36v-4.24c7.68 0 11.28-2.267 10.8-6.8l-1.76-17.76c-.053-.533-.08-1.253-.08-2.16 0-2.453.533-4.253 1.6-5.4 1.067-1.147 2.933-1.907 5.6-2.28-2.507-.48-4.333-1.373-5.48-2.68-1.147-1.307-1.72-3.16-1.72-5.56 0-.747.027-1.333.08-1.76l1.76-17.76c.267-2.4-.613-4.133-2.64-5.2-2.027-1.067-4.747-1.6-8.16-1.6v-4.24c4.267 0 7.92.787 10.96 2.36z"/><text fill="#000" font-family="AppleColorEmoji, Apple Color Emoji" font-size="100" letter-spacing=".5" transform="translate(39 46)"><tspan x="102" y="100">✨</tspan></text></g></svg>
